<?xml version="1.0" encoding="UTF-8"?>
<svg width="16px" height="16px" viewBox="0 0 16 16" version="1.1" xmlns="http://www.w3.org/2000/svg" xmlns:xlink="http://www.w3.org/1999/xlink">
    <title>Icons / Country and Language</title>
    <g id="Icons-/-Country-and-Language" stroke="none" stroke-width="1" fill="#FFFFFF" fill-rule="evenodd">
        <path d="M8,0 C12.418278,0 16,3.581722 16,8 C16,12.418278 12.418278,16 8,16 C3.581722,16 0,12.418278 0,8 C0,3.581722 3.581722,0 8,0 Z M8,1 C4.13400675,1 1,4.13400675 1,8 C1,11.8659932 4.13400675,15 8,15 C11.8659932,15 15,11.8659932 15,8 C15,4.13400675 11.8659932,1 8,1 Z" id="Oval-Copy" fill-rule="nonzero"></path>
        <path d="M8.2,0 C9.41748105,0 10.476161,1.69977029 11.0170551,4.20184871 L11.1151823,4.69589936 C11.2981199,5.70307349 11.4,6.82179253 11.4,8 C11.4,9.17820747 11.2981199,10.2969265 11.1151823,11.3041006 L11.0170551,11.7981513 C10.476161,14.3002297 9.41748105,16 8.2,16 C6.98251895,16 5.92383895,14.3002297 5.38294487,11.7981513 L5.28481768,11.3041006 C5.10188009,10.2969265 5,9.17820747 5,8 C5,6.82179253 5.10188009,5.70307349 5.28481768,4.69589936 L5.38294487,4.20184871 C5.92383895,1.69977029 6.98251895,0 8.2,0 Z M8.2,1 C7.85828719,1 7.32671238,1.56209296 6.86573499,2.71453643 C6.31989651,4.07913262 6,5.96993338 6,8 C6,10.0300666 6.31989651,11.9208674 6.86573499,13.2854636 C7.32671238,14.437907 7.85828719,15 8.2,15 C8.54171281,15 9.07328762,14.437907 9.53426501,13.2854636 C10.0801035,11.9208674 10.4,10.0300666 10.4,8 C10.4,5.96993338 10.0801035,4.07913262 9.53426501,2.71453643 C9.07328762,1.56209296 8.54171281,1 8.2,1 Z" id="Oval-Copy-2" fill-rule="nonzero"></path>
        <path d="M7.70548455,9.5 C9.9810743,9.5 12.1197346,10.3702585 13.7356963,11.8977894 L13.9527786,12.1101431 L13.241382,12.8129338 C11.7884821,11.3422428 9.8144241,10.5 7.70548455,10.5 C5.78851382,10.5 3.98194969,11.1955148 2.57523249,12.4305026 L2.34453153,12.6413023 L1.65546847,11.9166009 C3.27657459,10.3752151 5.42294029,9.5 7.70548455,9.5 Z" id="Oval" fill-rule="nonzero"></path>
        <path d="M7.5116018,2.5 C9.70970142,2.5 11.775842,3.33890157 13.3388627,4.8117919 L13.5586887,5.02649553 L12.8472921,5.72928627 C11.4469248,4.31177102 9.54428673,3.5 7.5116018,3.5 C5.66394346,3.5 3.92273917,4.17035078 2.5668904,5.36068195 L2.34453153,5.56385933 L1.65546847,4.83915795 C3.22461408,3.34717749 5.30222062,2.5 7.5116018,2.5 Z" id="Oval-Copy-3" fill-rule="nonzero" transform="translate(7.607079, 4.114643) rotate(-180.000000) translate(-7.607079, -4.114643) "></path>
    </g>
</svg>